<?xml version="1.0" encoding="utf-8"?>
<!-- Generator: Adobe Illustrator 19.0.0, SVG Export Plug-In . SVG Version: 6.00 Build 0)  -->
<svg version="1.1" id="Camada_1" xmlns="http://www.w3.org/2000/svg" xmlns:xlink="http://www.w3.org/1999/xlink" x="0px" y="0px"
	 viewBox="0 0 432.9 129.8" style="enable-background:new 0 0 432.9 129.8;" xml:space="preserve">
<style type="text/css">
	.st0{fill:#1C75BC;}
	.st1{fill:#ED1079;}
</style>
<path id="XMLID_3_" class="st0" d="M80.9,58.4l-20.2,5.4c-2.4-8.5-8.5-12.8-18.4-12.8c-9.3,0-14,2.8-14,8.5c0,2.2,0.9,4,2.6,5.4
	c1.7,1.3,6.2,2.5,13.4,3.4C55,69.8,63,71.4,68.1,73.3c5.2,1.9,9.2,5,12.3,9.4c3,4.4,4.5,9.8,4.5,16.3c0,9.7-3.7,17.6-11,23.7
	c-7.4,6.1-17.7,9.1-30.9,9.1c-24,0-38.3-9.3-43-27.9l23.4-3.4c1.9,8.5,8.9,12.7,20.9,12.7c4.6,0,8.5-0.8,11.7-2.5s4.8-3.9,4.8-6.7
	c0-4.4-3.5-6.9-10.5-7.7c-19-2.3-31.5-6-37.5-10.9c-6-4.9-9-11.8-9-20.6c0-8.9,3.5-16.3,10.4-22.2c7-5.8,16.7-8.8,29.3-8.8
	c9.9,0,17.9,2,23.9,5.9S77.7,49.8,80.9,58.4z"/>
<path id="XMLID_5_" class="st0" d="M162.9,67.6l30.6,62.2h-30.7l-19.7-42.6L126.9,106v23.9h-26.2V2.6h26.2v76.2l4.1-5.1
	c1.7-2.4,3.2-4.3,4.4-5.7l27.5-32.3H190L162.9,67.6z"/>
<rect id="XMLID_9_" x="204.4" class="st1" width="27.8" height="27.8"/>
<rect id="XMLID_8_" x="204.4" y="35.7" class="st0" width="27.8" height="94.1"/>
<path id="XMLID_10_" class="st0" d="M255,129.8V2.6h27.8v127.2H255z"/>
<path id="XMLID_12_" class="st0" d="M305.6,129.8V2.6h27.8v127.2H305.6z"/>
<path id="XMLID_2_" class="st0" d="M428.9,59.4l-20.2,5.4c-2.4-8.5-8.5-12.8-18.4-12.8c-9.3,0-14,2.8-14,8.5c0,2.2,0.9,4,2.6,5.4
	c1.7,1.3,6.2,2.5,13.4,3.4c10.8,1.4,18.7,3.1,23.9,4.9c5.2,1.9,9.2,5,12.3,9.4c3,4.4,4.5,9.8,4.5,16.3c0,9.7-3.7,17.6-11,23.7
	c-7.4,6.1-17.7,9.1-30.9,9.1c-24,0-38.3-9.3-43-27.9l23.4-3.4c1.9,8.5,8.9,12.7,20.9,12.7c4.6,0,8.5-0.8,11.7-2.5s4.8-3.9,4.8-6.7
	c0-4.4-3.5-6.9-10.5-7.7c-19-2.3-31.5-6-37.5-10.9c-6-4.9-9-11.8-9-20.6c0-8.9,3.5-16.3,10.4-22.2c7-5.8,16.7-8.8,29.3-8.8
	c9.9,0,17.9,2,23.9,5.9S425.7,50.8,428.9,59.4z"/>
</svg>
